<svg width="650" height="66" viewBox="0 0 650 66" fill="none" xmlns="http://www.w3.org/2000/svg">
<path d="M0 12.5333L65 10.0267L130 6.89333L195 13.7867L260 12.5333L325 2.50667L390 13.16L455 3.13333L520 0L585 1.88L650 5.64V23.1867H585H520H455H390H325H260H195H130H65H0V12.5333Z" fill="#6600FF"/>
<path d="M0 6.89333L65 3.13333L130 23.1867L195 10.0267L260 7.52L325 4.38667L390 13.16L455 18.1733L520 3.13333L585 0L650 13.7867V61.4133H585H520H455H390H325H260H195H130H65H0V6.89333Z" fill="#0AC3F5"/>
<path d="M0 24.2533L65 26.1333L130 28.0133L195 23L260 29.2667L325 38.6667L390 24.2533L455 38.6667L520 34.28L585 27.3867L650 25.5067V58.72H585H520H455H390H325H260H195H130H65H0V24.2533Z" fill="#0073FF"/>
<path d="M0 27.9067L65 20.3867L130 24.7733L195 26.6533L260 31.6667L325 29.7867L390 19.76L455 32.92L520 21.64L585 16L650 29.16V65.5067H585H520H455H390H325H260H195H130H65H0V27.9067Z" fill="#00A1FF"/>
</svg>
