<svg width="1924" height="103" viewBox="0 0 1924 103" fill="none" xmlns="http://www.w3.org/2000/svg">
<path d="M0 15.9773L192.4 12.7818L384.8 8.78749L577.2 17.575L769.6 15.9773L962 3.19545L1154.4 16.7761L1346.8 3.99431L1539.2 0L1731.6 2.39659L1924 7.18977V29.5579H1731.6H1539.2H1346.8H1154.4H962H769.6H577.2H384.8H192.4H0V15.9773Z" fill="#6600FF"/>
<path d="M0 8.78749L192.4 3.99431L384.8 29.5579L577.2 12.7818L769.6 9.58635L962 5.59204L1154.4 16.7761L1346.8 23.167L1539.2 3.99431L1731.6 0L1924 17.575V78.2886H1731.6H1539.2H1346.8H1154.4H962H769.6H577.2H384.8H192.4H0V8.78749Z" fill="#0AC3F5"/>
<path d="M0 30.9177L192.4 33.3143L384.8 35.7108L577.2 29.3199L769.6 37.3086L962 49.2915L1154.4 30.9177L1346.8 49.2915L1539.2 43.6995L1731.6 34.912L1924 32.5154V74.8551H1731.6H1539.2H1346.8H1154.4H962H769.6H577.2H384.8H192.4H0V30.9177Z" fill="#0073FF"/>
<path d="M0 54.1784L192.4 44.592L384.8 50.1841L577.2 52.5807L769.6 58.9716L962 56.575L1154.4 43.7932L1346.8 60.5693L1539.2 46.1898L1731.6 39L1924 55.7761V102.11H1731.6H1539.2H1346.8H1154.4H962H769.6H577.2H384.8H192.4H0V54.1784Z" fill="#00A1FF"/>
</svg>
