<svg width="1183" height="103" viewBox="0 0 1183 103" fill="none" xmlns="http://www.w3.org/2000/svg">
<path d="M0 15.9773L118.3 12.7818L236.6 8.78749L354.9 17.575L473.2 15.9773L591.5 3.19545L709.8 16.7761L828.1 3.99431L946.4 0L1064.7 2.39659L1183 7.18977V29.5579H1064.7H946.4H828.1H709.8H591.5H473.2H354.9H236.6H118.3H0V15.9773Z" fill="#6600FF"/>
<path d="M0 8.78749L118.3 3.99431L236.6 29.5579L354.9 12.7818L473.2 9.58635L591.5 5.59204L709.8 16.7761L828.1 23.167L946.4 3.99431L1064.7 0L1183 17.575V78.2886H1064.7H946.4H828.1H709.8H591.5H473.2H354.9H236.6H118.3H0V8.78749Z" fill="#0AC3F5"/>
<path d="M0 30.9177L118.3 33.3143L236.6 35.7108L354.9 29.3199L473.2 37.3086L591.5 49.2915L709.8 30.9177L828.1 49.2915L946.4 43.6995L1064.7 34.912L1183 32.5154V74.8551H1064.7H946.4H828.1H709.8H591.5H473.2H354.9H236.6H118.3H0V30.9177Z" fill="#0073FF"/>
<path d="M0 54.1784L118.3 44.592L236.6 50.1841L354.9 52.5807L473.2 58.9716L591.5 56.575L709.8 43.7932L828.1 60.5693L946.4 46.1898L1064.7 39L1183 55.7761V102.11H1064.7H946.4H828.1H709.8H591.5H473.2H354.9H236.6H118.3H0V54.1784Z" fill="#00A1FF"/>
</svg>
